HIERARCHY
ROOT Hips
{
	OFFSET 0.000000 0.000000 0.000000
	CHANNELS 6 Xposition Yposition Zposition Xrotation Yrotation Zrotation
	JOINT LeftUpLeg_virtual
	{
		OFFSET 0.000000 0.000000 0.000000
		CHANNELS 3 Xrotation Yrotation Zrotation
		JOINT LeftUpLeg
		{
			OFFSET 13.026900 -6.336304 -1.092800
			CHANNELS 3 Xrotation Yrotation Zrotation
			JOINT LeftLeg
			{
				OFFSET 0.524474 -46.096886 9.782700
				CHANNELS 3 Xrotation Yrotation Zrotation
				JOINT LeftFoot
				{
					OFFSET -0.524474 -53.427422 -12.948200
					CHANNELS 3 Xrotation Yrotation Zrotation
					JOINT LeftToeBase
					{
						OFFSET 0.192200 -14.009700 16.364100
						CHANNELS 3 Xrotation Yrotation Zrotation
						JOINT LeftToe_End
						{
							OFFSET -1.784700 -0.561700 9.474800
							CHANNELS 3 Xrotation Yrotation Zrotation
							End Site
							{
								OFFSET 0 0 0
							}
						}
					}
				}
			}
		}
	}
	JOINT RightUpLeg_virtual
	{
		OFFSET 0.000000 0.000000 0.000000
		CHANNELS 3 Xrotation Yrotation Zrotation
		JOINT RightUpLeg
		{
			OFFSET -12.883000 -6.336304 -1.092800
			CHANNELS 3 Xrotation Yrotation Zrotation
			JOINT RightLeg
			{
				OFFSET -0.524587 -46.096825 9.782800
				CHANNELS 3 Xrotation Yrotation Zrotation
				JOINT RightFoot
				{
					OFFSET 0.524587 -53.427383 -12.948300
					CHANNELS 3 Xrotation Yrotation Zrotation
					JOINT RightToeBase
					{
						OFFSET -0.192200 -14.009700 16.364100
						CHANNELS 3 Xrotation Yrotation Zrotation
						JOINT RightToe_End
						{
							OFFSET 1.784700 -0.561700 9.474800
							CHANNELS 3 Xrotation Yrotation Zrotation
							End Site
							{
								OFFSET 0 0 0
							}
						}
					}
				}
			}
		}
	}
	JOINT Spine_virtual
	{
		OFFSET 0.000000 0.000000 0.000000
		CHANNELS 3 Xrotation Yrotation Zrotation
		JOINT Spine
		{
			OFFSET 0.072000 7.257294 -0.789700
			CHANNELS 3 Xrotation Yrotation Zrotation
			JOINT Spine1
			{
				OFFSET 0.000000 12.508769 -0.658067
				CHANNELS 3 Xrotation Yrotation Zrotation
				JOINT Spine1_split
				{
					OFFSET 0.000000 12.508769 -0.658067
					CHANNELS 3 Xrotation Yrotation Zrotation
					JOINT Spine2
					{
						OFFSET 0.000000 12.508769 -0.658067
						CHANNELS 3 Xrotation Yrotation Zrotation
						JOINT Neck_virtual
						{
							OFFSET 0.000000 0.000000 0.000000
							CHANNELS 3 Xrotation Yrotation Zrotation
							JOINT Neck
							{
								OFFSET 0.000000 14.033295 7.520400
								CHANNELS 3 Xrotation Yrotation Zrotation
								JOINT Head
								{
									OFFSET 0.000000 8.198502 5.703100
									CHANNELS 3 Xrotation Yrotation Zrotation
									JOINT HeadTop_End
									{
										OFFSET 0.000000 17.760803 13.332701
										CHANNELS 3 Xrotation Yrotation Zrotation
										End Site
										{
											OFFSET 0 0 0
										}
									}
								}
							}
						}
						JOINT LeftShoulder_virtual
						{
							OFFSET 0.000000 0.000000 0.000000
							CHANNELS 3 Xrotation Yrotation Zrotation
							JOINT LeftShoulder
							{
								OFFSET 6.292450 5.785301 -0.669000
								CHANNELS 3 Xrotation Yrotation Zrotation
								JOINT LeftShoulder_split
								{
									OFFSET 6.292450 5.785301 -0.669000
									CHANNELS 3 Xrotation Yrotation Zrotation
									JOINT LeftArm
									{
										OFFSET 13.907140 -6.093903 1.965100
										CHANNELS 3 Xrotation Yrotation Zrotation
										JOINT LeftForeArm
										{
											OFFSET 34.140198 0.000000 0.000000
											CHANNELS 3 Xrotation Yrotation Zrotation
											JOINT LeftHand
											{
												OFFSET 40.960209 0.000000 0.000000
												CHANNELS 3 Xrotation Yrotation Zrotation
												End Site
												{
													OFFSET 0 0 0
												}
											}
										}
									}
								}
							}
						}
						JOINT RightShoulder_virtual
						{
							OFFSET 0.000000 0.000000 0.000000
							CHANNELS 3 Xrotation Yrotation Zrotation
							JOINT RightShoulder
							{
								OFFSET -6.292450 5.785301 -0.669000
								CHANNELS 3 Xrotation Yrotation Zrotation
								JOINT RightShoulder_split
								{
									OFFSET -6.292450 5.785301 -0.669000
									CHANNELS 3 Xrotation Yrotation Zrotation
									JOINT RightArm
									{
										OFFSET -13.907140 -6.093903 1.965100
										CHANNELS 3 Xrotation Yrotation Zrotation
										JOINT RightForeArm
										{
											OFFSET -34.140198 0.000000 0.000000
											CHANNELS 3 Xrotation Yrotation Zrotation
											JOINT RightHand
											{
												OFFSET -40.960209 0.000000 0.000000
												CHANNELS 3 Xrotation Yrotation Zrotation
												End Site
												{
													OFFSET 0 0 0
												}
											}
										}
									}
								}
							}
						}
					}
				}
			}
		}
	}
}
MOTION
Frames: 5
Frame Time: 0.03333333
-9.925711 96.876579 0.995232 0.000000 0.000000 0.000000 28.873716 -45.086516 12.491130 -91.523305 -3.989032 9.657852 62.276586 1.103445 -0.442356 23.621926 -2.988522 -6.692340 -3.698430 1.874926 -0.339567 0.000000 0.000000 0.000000 26.632822 -43.805391 10.475354 -21.712704 -16.402158 -14.565244 46.004896 -8.827695 3.505607 -16.965920 -12.790299 24.573390 -4.724599 -0.392930 3.067368 0.000000 0.000000 0.000000 30.792760 -45.066674 13.527488 -1.637937 6.539807 -1.898063 -1.300063 2.493188 0.410428 0.907479 -1.001387 0.311698 0.000000 0.000000 0.000000 0.386466 0.203268 1.211004 10.536662 6.440897 -8.260888 -3.448445 20.545650 11.280830 0.000000 0.000000 0.000000 -2.663350 1.272534 0.924697 3.476025 3.755125 -9.876288 0.741654 4.667674 1.250194 -52.347366 -28.708853 -48.569168 0.513305 -71.017165 2.134895 0.000000 0.000000 0.000000 -2.349415 0.155654 0.714758 -12.686656 -0.468151 -4.124596 -8.011700 0.375175 -1.452729 -107.539867 37.138201 126.083789 -4.583840 24.903527 1.999810 0.000000 0.000000 0.000000 
-8.632594 98.221497 -5.176697 0.000000 0.000000 0.000000 29.271701 -42.852112 11.312931 -88.739457 -4.312321 8.063876 64.741560 0.642301 0.270380 20.372291 -3.705720 -7.766646 -4.987562 1.346540 0.755623 0.000000 0.000000 0.000000 27.070823 -43.901089 10.208619 -21.091342 -18.770106 -12.470483 42.861548 -7.856998 2.804121 -18.527909 -11.889361 25.807723 -3.943887 0.122557 1.879535 0.000000 0.000000 0.000000 32.641921 -44.921615 13.853538 -2.228445 6.769318 -1.341675 -1.316919 2.629157 0.307193 2.008024 -1.140570 0.482566 0.000000 0.000000 0.000000 0.432082 0.301314 1.166083 10.677613 6.285190 -8.022636 -3.199883 20.557263 11.226592 0.000000 0.000000 0.000000 -2.419751 1.300953 0.818981 3.370559 3.254177 -10.102444 1.468661 4.837438 1.265750 -52.125921 -28.998381 -48.311912 0.320619 -70.343715 1.896196 0.000000 0.000000 0.000000 -2.108822 0.348475 0.810130 -12.719130 -0.785782 -3.774227 -8.460080 0.542402 -1.429117 -107.391215 37.858495 126.112777 -4.313275 23.273624 1.959733 0.000000 0.000000 0.000000 
-7.087844 99.797722 -13.516964 0.000000 0.000000 0.000000 29.957302 -42.703596 10.628487 -83.966589 -3.896339 5.966780 65.606836 -0.275586 1.292067 15.321682 -5.276436 -8.265802 -7.828147 0.580194 2.353649 0.000000 0.000000 0.000000 28.028139 -45.890627 10.663804 -21.941453 -21.533573 -10.120802 40.107233 -6.834468 2.674528 -19.002742 -10.135860 26.012757 -4.979934 0.498477 0.279097 0.000000 0.000000 0.000000 34.811572 -45.873791 14.459936 -2.458926 7.324224 -0.585654 -1.304735 3.101281 0.254147 2.464877 -1.241311 0.501383 0.000000 0.000000 0.000000 0.516887 0.696490 1.119216 10.743813 5.876074 -7.344512 -2.777395 19.826207 11.447523 0.000000 0.000000 0.000000 -2.241555 1.655413 0.745347 3.183681 2.364333 -10.292818 2.017372 4.652996 1.511956 -51.951324 -29.864364 -47.903883 -0.154194 -70.431012 1.340436 0.000000 0.000000 0.000000 -1.749800 0.864292 0.932405 -12.915082 -1.372395 -2.866334 -8.800202 0.586951 -1.740331 -106.972374 38.345396 125.691463 -3.963662 21.901271 1.752786 0.000000 0.000000 0.000000 
-5.953598 100.788826 -22.548168 0.000000 0.000000 0.000000 31.204935 -45.067890 10.998970 -79.007653 -3.387944 4.318526 64.920094 -1.654080 2.024603 10.002059 -7.278709 -7.572285 -10.763454 -0.264624 3.870589 0.000000 0.000000 0.000000 29.268911 -49.351972 11.724726 -23.795657 -23.901234 -8.437200 39.170681 -5.882835 3.151288 -18.681985 -8.565660 25.115698 -6.860170 0.694031 -1.219025 0.000000 0.000000 0.000000 36.617805 -47.779338 15.181979 -2.283863 8.096698 0.178719 -1.327012 3.769481 0.269525 1.787803 -1.011099 0.421129 0.000000 0.000000 0.000000 0.610116 1.283054 1.097617 10.651707 5.308805 -6.394381 -2.337773 18.598959 11.812812 0.000000 0.000000 0.000000 -2.145523 2.212690 0.724763 2.977154 1.330989 -10.379200 2.327063 4.377355 1.710933 -51.938722 -31.087558 -47.289781 -0.865383 -71.046603 0.518114 0.000000 0.000000 0.000000 -1.365592 1.579240 1.079923 -13.196854 -2.068780 -1.773199 -8.974745 0.535834 -2.148751 -106.448594 38.383464 125.009619 -3.630653 21.281341 1.465241 0.000000 0.000000 0.000000 
-5.442219 100.422264 -31.203106 0.000000 0.000000 0.000000 32.796092 -48.821093 12.231778 -75.443264 -3.066881 3.946301 64.098566 -2.914925 2.034187 5.723578 -8.646792 -5.157963 -11.774531 -0.787666 4.416355 0.000000 0.000000 0.000000 30.751096 -53.297981 13.081455 -24.713573 -24.873546 -7.739857 40.440847 -5.497511 3.857478 -18.137040 -8.707927 22.780419 -8.383438 0.614088 -2.235375 0.000000 0.000000 0.000000 37.207800 -50.167436 15.455787 -1.670308 8.969814 0.752988 -1.385157 4.439629 0.379681 0.979720 -0.386340 0.412613 0.000000 0.000000 0.000000 0.654470 1.865738 1.136407 10.454292 4.662291 -5.396980 -2.003585 17.282995 12.137222 0.000000 0.000000 0.000000 -2.111363 2.762104 0.757102 2.828271 0.459724 -10.510832 2.327790 4.313374 1.834716 -52.123540 -32.382289 -46.506683 -1.648275 -71.606590 -0.392559 0.000000 0.000000 0.000000 -1.060895 2.299451 1.248972 -13.456152 -2.714314 -0.855504 -8.568419 0.428282 -2.492410 -105.941418 37.910203 124.282983 -3.385665 21.556777 1.202339 0.000000 0.000000 0.000000 
